<svg width="23" height="24" viewBox="0 0 23 24" fill="none" xmlns="http://www.w3.org/2000/svg">
<g clip-path="url(#clip0_38_2070)">
<path d="M1.53157 3.85504C2.05255 2.89992 2.78409 2.14541 3.71904 1.60083C4.66327 1.03102 5.74027 0.753662 6.93185 0.753662C8.14091 0.753662 9.22825 1.03007 10.1741 1.60083C11.109 2.14542 11.8406 2.89993 12.3616 3.85504C12.8839 4.81263 13.1395 5.88202 13.1395 7.04978V17.3334C13.1395 17.7661 13.2424 18.1446 13.442 18.4823C13.6503 18.8348 13.9171 19.1085 14.2448 19.3124C14.5882 19.5142 14.9466 19.6118 15.3296 19.6118C15.7143 19.6118 16.0602 19.5135 16.3799 19.3156C16.7057 19.1139 16.9602 18.8449 17.1485 18.4996L17.1533 18.4908L17.1584 18.4823C17.3579 18.1446 17.4608 17.7661 17.4608 17.3334V1.68697V1.10726H18.0405H20.8692H21.4489V1.68697V16.9503C21.4489 18.118 21.1933 19.1874 20.671 20.145C20.1521 21.0962 19.4342 21.8585 18.5224 22.423L18.5181 22.4256L18.5138 22.4282C17.5866 22.9801 16.5186 23.2464 15.3296 23.2464C14.1404 23.2464 13.065 22.98 12.1211 22.4312L12.1142 22.4272L12.1074 22.423C11.1956 21.8585 10.4776 21.0962 9.95885 20.145C9.43651 19.1874 9.18085 18.118 9.18085 16.9503V6.66671C9.18085 6.23396 9.07798 5.85552 8.87845 5.51779C8.67278 5.16982 8.39925 4.89628 8.05131 4.69066C7.71005 4.48903 7.34071 4.38822 6.93185 4.38822C6.52499 4.38822 6.15732 4.48802 5.81753 4.68763C5.49253 4.88992 5.22741 5.16078 5.01985 5.50915C4.8372 5.84749 4.74175 6.22934 4.74175 6.66671V22.3131V22.8928H4.16204H1.33331H0.753601V22.3131V7.04978C0.753601 5.88202 1.00925 4.81263 1.53157 3.85504ZM1.53157 3.85504L2.03124 4.12759" stroke="url(#paint0_linear_38_2070)" stroke-width="1.15942"/>
</g>
<defs>
<linearGradient id="paint0_linear_38_2070" x1="22.761" y1="0.213686" x2="0.0476405" y2="24.1548" gradientUnits="userSpaceOnUse">
<stop stop-color="#5EEAD4"/>
<stop offset="1" stop-color="#0D9488"/>
</linearGradient>
<clipPath id="clip0_38_2070">
<rect width="22.6667" height="24" fill="white"/>
</clipPath>
</defs>
</svg>
